<?xml version="1.0" encoding="UTF-8" standalone="no"?>
<svg
    xmlns="http://www.w3.org/2000/svg"
    version="1.1"
    height="22"
    width="80"
    viewBox="0 0 40 11"
    fill="#777"
    stroke-width="0"
    >
    <svg x="1" y="0" height="11" width="10">
        <path d="
            M 0 10
            v -4
            A 3 3 0 0 1  5  3.764
            A 3 3 0 0 1 10  6
            v 4 h -2 v -4
            A 1 1 0 0 0  6  6
            v 4 h -2 v -4
            A 1 1 0 0 0  2  6
            v 4
        "/>
    </svg>
    <svg x="12" y="0" height="11" width="10">
        <path d="
            M 0 3
            v 4
            A 3 3 0 0 0  5 9.236
            A 3 3 0 0 0 10  7
            v -4 h -2 v 4
            A 1 1 0 0 1  6  7
            v -4 h -2 v 4
            A 1 1 0 0 1  2  7
            v -4
        "/>
    </svg>
    <svg x="21" y="0" height="11" width="6">
        <path d="
            M 2 1
            v 6
            A 3 3 0 0 0  5 10
            h 1 v -2 h -1
            A 1 1 0 0 1  4  7
            v -2 h 2 v -2 h -2 v -2
        "/>
    </svg>
    <svg x="28" y="0" height="11" width="6">
        <path d="
            M 0 1
            v 9 h 2 v -5 h 1
            A 1 1 0 0 1  4  6
            v 4 h 2 v -4
            A 3 3 0 0 0  3  3
            h -1 v -2
        "/>
    </svg>
    <svg x="35" y="0" height="11" width="6">
        <path d="
            M 0 6
            A 3 3 0 0 1  3  3
            h 1 v 2 h -1
            A 1 1 0 0 0  2  6
            v 4 h -2
        "/>
    </svg>
</svg>
